<svg xmlns="http://www.w3.org/2000/svg" viewBox="0 0 24 24" width="24px" height="24px"><path d="M21,7v10c0,2.2-1.8,4-4,4H7c-2.2,0-4-1.8-4-4V7c0-2.2,1.8-4,4-4h10C19.2,3,21,4.8,21,7z" opacity=".3"></path><path d="M17,3H7C4.803,3,3,4.803,3,7v10c0,2.197,1.803,4,4,4h10c2.197,0,4-1.803,4-4V7C21,4.803,19.197,3,17,3z M19,17 c0,1.117-0.883,2-2,2H7c-1.117,0-2-0.883-2-2V7c0-1.117,0.883-2,2-2h10c1.117,0,2,0.883,2,2V17z"></path><path d="M16,7l-0.512-1H14l-4,4.828V7c0-0.552-0.298-1-0.667-1H8.667C8.298,6,8,6.448,8,7v10c0,0.552,0.298,1,0.667,1h0.667 C9.702,18,10,17.552,10,17v-2.401l1.484-1.88L15.005,18h1.508l0.492-1l-4.075-6.112L16,7z"></path></svg>